<?xml version="1.0" encoding="utf-8"?>
<!-- Generator: Adobe Illustrator 15.0.0, SVG Export Plug-In . SVG Version: 6.00 Build 0)  -->
<!DOCTYPE svg PUBLIC "-//W3C//DTD SVG 1.1//EN" "http://www.w3.org/Graphics/SVG/1.1/DTD/svg11.dtd">
<svg version="1.1" id="Layer_2" xmlns="http://www.w3.org/2000/svg" xmlns:xlink="http://www.w3.org/1999/xlink" x="0px" y="0px"
	 width="402px" height="412px" viewBox="0 0 402 412" enable-background="new 0 0 402 412" xml:space="preserve">
<polygon fill="none" stroke="#000000" stroke-miterlimit="10" points="125.63,0.5 125.79,8.501 125.907,19.062 125.986,32.198 
	126.054,49.847 126.11,68.508 126.154,83.67 126.192,98.001 126.231,113.5 126.262,125.75 126.276,131.5 122.192,131.5 116.5,131.5 
	116.5,119.667 116.5,106.833 116.5,90 116.5,76.167 116.5,59.833 116.5,40.667 116.5,22.333 116.5,8.75 116.5,0.5 "/>
<polygon fill="none" stroke="#000000" stroke-miterlimit="10" points="167.74,131.5 169.004,120.728 169.94,112.801 171.485,99.871 
	173.729,81.162 176.289,59.82 178.128,44.5 180.166,27.521 181.573,15.801 182.796,5.87 183.47,0.5 187.284,0.5 191.393,0.5 
	192.097,6.222 193.344,16.686 194.61,27.366 196.424,42.729 197.975,55.875 200.744,79.374 202.18,91.545 203.923,106.347 
	205.396,118.85 206.613,129.438 206.828,131.5 203.025,131.5 198.692,131.5 197.693,122.75 196.36,111.271 194.99,99.547 
	193.192,84.217 191.449,69.358 189.594,53.559 187.38,34.715 185.645,49.203 184.422,59.402 182.624,74.405 180.073,95.692 
	178.238,111.005 177.021,121.416 175.843,131.5 172.192,131.5 "/>
<polyline fill="none" stroke="#000000" stroke-miterlimit="10" points="248,131.5 244.025,131.5 239.691,131.5 238.693,122.75 
	237.359,111.271 235.99,99.547 234.191,84.217 232.449,69.358 230.594,53.559 228.38,34.715 226.645,49.203 225.422,59.402 
	223.624,74.405 221.073,95.692 219.238,111.005 218.021,121.416 216.843,131.5 213.191,131.5 208.74,131.5 210.004,120.728 
	210.939,112.801 212.484,99.871 214.729,81.162 217.289,59.82 219.128,44.5 221.166,27.521 222.573,15.801 223.796,5.87 
	224.471,0.5 228.284,0.5 232.393,0.5 233.098,6.222 234.344,16.686 235.609,27.366 237.424,42.729 238.975,55.875 241.744,79.374 
	243.18,91.545 243.962,97.88 "/>
<polyline fill="none" stroke="#000000" stroke-miterlimit="10" points="243.872,97.152 245.762,81.162 248.307,59.82 250.137,44.5 
	252.17,27.521 253.575,15.801 254.797,5.87 255.471,0.5 259.284,0.5 263.393,0.5 264.098,6.222 265.344,16.686 266.609,27.366 
	268.424,42.729 269.975,55.875 272.744,79.374 274.18,91.545 275.923,106.347 277.396,118.85 278.614,129.438 278.828,131.5 
	275.025,131.5 270.691,131.5 269.693,122.75 268.359,111.271 266.99,99.547 265.191,84.217 263.449,69.358 261.594,53.559 
	259.38,34.715 257.645,49.203 256.422,59.402 254.624,74.405 252.073,95.692 250.238,111.005 249.021,121.416 247.843,131.5 
	244.191,131.5 240,131.5 "/>
<polygon fill="none" stroke="#000000" stroke-miterlimit="10" points="5.5,411.5 5.5,379.75 5.5,348 5.5,321.5 5.5,292.125 
	5.5,261.5 5.5,225.75 5.5,171.25 5.5,148.5 17.438,148.5 24.583,148.5 28.667,173.209 32.295,195.191 37.5,227.316 42.748,259.865 
	49.913,310.681 48.5,259.25 48.5,225.625 48.5,189.625 48.5,162.625 48.5,148.5 59.75,148.5 64.5,148.5 64.5,162.125 64.5,189.25 
	64.5,225 64.5,259.875 64.5,310.375 64.5,340.5 64.5,366.125 64.5,388.375 64.5,411.5 60.062,411.5 50.562,411.5 47.41,390.762 
	43.694,367.104 39.488,340.64 34.21,307.619 27.726,270.125 21.5,240.857 21.5,259.5 21.5,286.875 21.5,316.75 21.5,352.25 
	21.5,380.625 21.75,411.5 14.5,411.5 "/>
<polygon fill="none" stroke="#000000" stroke-miterlimit="10" points="67.096,411.5 69.623,389.705 71.496,373.728 74.586,347.805 
	79.072,310.355 84.193,267.656 87.87,237.008 91.947,203.046 94.762,179.604 97.206,159.491 98.555,148.5 106.184,148.5 
	114.4,148.5 115.809,160.194 118.303,181.246 120.835,202.67 124.463,233.427 127.564,259.734 133.104,306.74 135.973,331.087 
	139.46,360.691 142.406,385.698 144.844,407.125 145.271,411.5 137.667,411.5 129,411.5 127.002,393.75 124.335,370.668 
	121.595,347.156 118,316.466 114.514,286.732 110.803,255.125 106.375,217.434 102.903,246.407 100.459,266.805 96.863,296.811 
	91.762,339.385 88.092,370.011 85.657,391.082 83.3,411.5 76,411.5 "/>
<polygon fill="none" stroke="#000000" stroke-miterlimit="10" points="147.5,411.5 147.5,387.333 147.5,361.667 147.5,328 
	147.5,300.333 147.5,267.667 147.5,229.334 147.5,192.667 147.5,165.5 132.667,165.5 119,165.5 117.916,156.845 116.869,148.5 
	127,148.5 141.666,148.5 158.334,148.5 176,148.5 193.5,148.5 193.5,156.502 193.5,164.667 179.583,164.834 165.195,164.751 
	165.429,186 165.588,212.334 165.722,247.662 165.836,285 165.923,315.332 165.999,343.999 166.078,374.999 166.139,399.749 
	166.168,411.5 158,411.5 "/>
<polygon fill="none" stroke="#000000" stroke-miterlimit="10" points="196.5,411.5 196.5,379.75 196.5,358.25 196.5,328 
	196.5,298.75 196.5,276.25 196.5,237 196.5,206.75 196.5,170.164 196.5,148.5 206,148.5 213.5,148.5 213.5,169.333 213.5,203.667 
	213.5,233.334 213.5,256.667 213.5,269.418 226.668,269.375 239.5,269.334 239.5,250 239.5,210.334 239.5,183.334 239.5,171.667 
	239.5,155.667 239.5,148.5 249.334,148.5 256.5,148.5 256.5,156.333 256.5,186 256.5,206.334 256.5,232.333 256.5,256.666 
	256.5,286 256.5,311.667 256.5,341 256.5,364.667 256.5,389.333 256.5,405.667 256.5,411.5 251,411.5 239.5,411.5 239.5,393.5 
	239.5,360.25 239.5,328 239.5,304.75 240,286.781 230.211,286.784 214.062,286.5 213.5,307 213.5,335.25 213.5,364 213.5,393.75 
	213.5,411.5 207,411.5 "/>
<polygon fill="none" stroke="#000000" stroke-miterlimit="10" points="259.096,411.5 261.455,391.098 264.91,361.951 
	267.984,336.146 272.027,302.391 275.374,274.466 278.559,247.93 282.374,216.136 285.986,186.045 288.714,163.591 290.555,148.5 
	298.184,148.5 306.4,148.5 309.139,171.489 311.755,193.567 314.93,220.443 317.802,244.797 320.891,270.989 325.607,311.016 
	328.82,338.278 332.37,368.409 335.574,396.351 337.271,411.5 330.667,411.5 321,411.5 318.771,391.778 314.535,355.352 
	309.688,313.892 305.843,281.074 301.395,243.157 298.375,217.445 293.953,254.34 289.678,290.006 284.932,329.622 280.083,370.09 
	276.619,399.744 275.301,411.5 267.667,411.5 "/>
<polygon fill="none" stroke="#000000" stroke-miterlimit="10" points="339.5,411.5 339.5,379.75 339.5,348 339.5,321.5 
	339.5,292.125 339.5,261.5 339.5,225.75 339.5,171.25 339.5,148.5 351.438,148.5 358.584,148.5 362.667,173.209 366.295,195.191 
	371.5,227.316 376.748,259.865 383.913,310.681 382.5,259.25 382.5,225.625 382.5,189.625 382.5,162.625 382.5,148.5 393.75,148.5 
	398.5,148.5 398.5,162.125 398.5,189.25 398.5,225 398.5,259.875 398.5,310.375 398.5,340.5 398.5,366.125 398.5,388.375 
	398.5,411.5 394.062,411.5 384.562,411.5 381.41,390.762 377.693,367.104 373.488,340.64 368.21,307.619 361.727,270.125 
	355.5,240.857 355.5,259.5 355.5,286.875 355.5,316.75 355.5,352.25 355.5,380.625 355.667,411.5 347.834,411.5 "/>
</svg>
